External Loads File
version=1
nRows=54
nColumns=13
Range=5.000000e-03-10 seconds
endheader
time 	forceRightX 	forceRightY 	forceRightZ 	pointRightX 	pointRightY 	pointRightZ 	forceLeftX 	forceLeftY 	forceLeftZ 	pointLeftX 	pointLeftY 	pointLeftZ 		
2.505000 -11.348736 935.453573 -0.000000 0.446875 0.348611 -0.106420 3.763708 -92.530475 -0.000000 0.164592 0.254812 -0.352504
2.510000 -26.126628 948.857499 -0.000000 0.448649 0.339450 -0.106286 5.327907 -87.522638 -0.000000 0.163729 0.262889 -0.352621
2.515000 -39.927223 965.143207 -0.000000 0.449958 0.330182 -0.106148 6.869937 -83.609267 -0.000000 0.163406 0.271030 -0.352900
2.520000 -51.757768 984.604086 -0.000000 0.450922 0.320794 -0.106089 8.113732 -80.721671 -0.000000 0.163457 0.279238 -0.353343
2.525000 -61.408455 1007.295307 -0.000000 0.451441 0.311465 -0.106026 8.860783 -78.803360 -0.000000 0.163891 0.287577 -0.353417
2.530000 -67.862307 1033.108913 -0.000000 0.451517 0.302056 -0.106017 8.835289 -77.821502 -0.000000 0.164820 0.296008 -0.353550
2.535000 -70.920987 1061.704294 -0.000000 0.451271 0.292695 -0.105883 7.849052 -77.692180 -0.000000 0.166127 0.304531 -0.353686
2.540000 -70.164886 1092.610961 -0.000000 0.450311 0.283403 -0.106133 5.784607 -78.248128 -0.000000 0.167865 0.313112 -0.353854
2.545000 -65.804962 1125.238546 -0.000000 0.449038 0.274239 -0.105765 2.652468 -79.242812 -0.000000 0.170045 0.321665 -0.353865
2.550000 -57.318506 1159.033655 -0.000000 0.447118 0.265120 -0.106546 -1.555994 -80.391726 -0.000000 0.172732 0.330112 -0.353968
2.555000 -45.359283 1193.405441 -0.000000 0.444909 0.256179 -0.106703 -6.727459 -81.416163 -0.000000 0.175742 0.338529 -0.354008
2.560000 -29.346697 1227.845500 -0.000000 0.442169 0.247268 -0.106776 -12.777602 -82.085856 -0.000000 0.179230 0.346833 -0.354113
2.565000 -10.148367 1261.814183 -0.000000 0.438828 0.238583 -0.106764 -19.484997 -82.243271 -0.000000 0.183184 0.354986 -0.354296
2.570000 12.087456 1294.828364 -0.000000 0.435186 0.230041 -0.106792 -26.654565 -81.773098 -0.000000 0.187457 0.363117 -0.354318
2.575000 37.611482 1326.402413 -0.000000 0.431029 0.221702 -0.106844 -34.090313 -80.550657 -0.000000 0.192237 0.371191 -0.354424
2.580000 64.091009 1356.159773 -0.000000 0.426460 0.213710 -0.106854 -41.416994 -78.497969 -0.000000 0.197315 0.378988 -0.354366
2.585000 92.856837 1383.676015 -0.000000 0.421435 0.205933 -0.106883 -48.467427 -75.452562 -0.000000 0.202798 0.386653 -0.354383
2.590000 122.861010 1408.602838 -0.000000 0.416000 0.198499 -0.106879 -54.915547 -71.400470 -0.000000 0.208590 0.394208 -0.354368
2.595000 153.720952 1430.517931 -0.000000 0.410125 0.191335 -0.106838 -60.472749 -66.465237 -0.000000 0.214686 0.401511 -0.354319
2.600000 184.677802 1448.985573 -0.000000 0.403970 0.184504 -0.106897 -64.891831 -60.911330 -0.000000 0.221049 0.408693 -0.354260
2.605000 215.092369 1463.528580 -0.000000 0.397391 0.178062 -0.106828 -68.062231 -55.006858 -0.000000 0.227673 0.415494 -0.354278
2.610000 246.116194 1473.301683 -0.000000 0.390531 0.172018 -0.106791 -70.072335 -48.858243 -0.000000 0.234857 0.422057 -0.355304
2.615000 274.675634 1477.974419 -0.000000 0.383444 0.166381 -0.106694 -70.962862 -42.698511 -0.000000 0.242065 0.428214 -0.355465
2.620000 301.647629 1476.408422 -0.000000 0.376051 0.161056 -0.106517 -70.986272 -36.525281 -0.000000 0.249347 0.434002 -0.355588
2.625000 326.219420 1467.546323 -0.000000 0.368483 0.156240 -0.106408 -70.384840 -30.365384 -0.000000 0.256798 0.439339 -0.355728
2.630000 346.983578 1450.378002 -0.000000 0.360834 0.151973 -0.106341 -69.417922 -24.237892 -0.000000 0.264218 0.444220 -0.354967
2.635000 365.834221 1423.088959 -0.000000 0.353081 0.148166 -0.106604 -68.385643 -18.028298 -0.000000 0.271947 0.448743 -0.354854
2.640000 382.804615 1384.260014 -0.000000 0.345257 0.144580 -0.106432 -67.488809 -11.791847 -0.000000 0.280081 0.452744 -0.354860
2.645000 395.082672 1333.393950 -0.000000 0.337445 0.141649 -0.106238 -66.856186 -5.777471 -0.000000 0.288203 0.456435 -0.354836
2.650000 402.271770 1269.676175 -0.000000 0.329655 0.139080 -0.106172 -66.608682 -0.110878 -0.000000 0.296283 0.459622 -0.355124
2.655000 404.051750 1192.740461 -0.000000 0.321940 0.137182 -0.106124 -66.823612 5.125616 -0.000000 0.304401 0.462446 -0.355231
2.660000 399.994368 1102.948981 -0.000000 0.314293 0.135700 -0.106117 -67.534476 9.916281 -0.000000 0.312494 0.464889 -0.355644
2.665000 390.241702 1001.282007 -0.000000 0.306723 0.134863 -0.106095 -68.714021 14.404942 -0.000000 0.320685 0.466865 -0.355895
2.670000 374.532679 889.686248 -0.000000 0.299217 0.134543 -0.105818 -70.271344 18.864588 -0.000000 0.328853 0.468270 -0.355973
2.675000 352.635400 770.859528 -0.000000 0.291938 0.134639 -0.105879 -72.063871 23.679872 -0.000000 0.336910 0.469242 -0.356137
2.680000 326.083800 647.262040 -0.000000 0.284816 0.135251 -0.105933 -73.875905 29.410525 -0.000000 0.344992 0.469674 -0.356315
2.685000 296.093574 521.702634 -0.000000 0.277557 0.136445 -0.106193 -75.490783 36.570546 -0.000000 0.352945 0.470220 -0.356796
2.690000 264.616498 396.504513 -0.000000 0.270272 0.138082 -0.106182 -76.628281 45.800385 -0.000000 0.360848 0.468621 -0.356791
2.695000 232.200568 274.505943 -0.000000 0.262995 0.140316 -0.106186 -77.077479 57.574905 -0.000000 0.368803 0.467200 -0.357281
2.700000 199.796780 158.038497 -0.000000 0.255589 0.142974 -0.106139 -76.649197 72.338930 -0.000000 0.376419 0.465692 -0.357369
2.705000 168.395869 48.784536 -0.000000 0.248052 0.146487 -0.106102 -75.079615 90.575289 -0.000000 0.383708 0.463392 -0.357487
2.710000 138.063474 -51.263169 -0.000000 0.240346 0.150442 -0.106036 -72.319832 112.513462 -0.000000 0.390682 0.460657 -0.357595
2.715000 108.697498 -140.234271 -0.000000 0.232751 0.154858 -0.105730 -68.450431 138.295316 -0.000000 0.397317 0.457283 -0.357840
2.720000 80.475812 -216.298320 -0.000000 0.225777 0.159382 -0.105602 -63.883545 167.838142 -0.000000 0.403553 0.453296 -0.358141
2.725000 53.754351 -278.245259 -0.000000 0.219443 0.164157 -0.105662 -59.029709 200.958535 -0.000000 0.409129 0.448779 -0.358367
2.730000 28.457359 -325.648916 -0.000000 0.213573 0.168982 -0.105709 -53.937813 237.382950 -0.000000 0.414769 0.443861 -0.359161
2.735000 5.151561 -358.769967 -0.000000 0.207990 0.174111 -0.105745 -48.967670 276.613337 -0.000000 0.419910 0.438279 -0.359635
2.740000 -15.338165 -378.642692 -0.000000 0.202893 0.179634 -0.105601 -44.498200 318.171377 -0.000000 0.424770 0.432221 -0.360139
2.745000 -32.670538 -386.726724 -0.000000 0.197700 0.185542 -0.105454 -40.384305 361.676089 -0.000000 0.429249 0.425543 -0.360620
2.750000 -46.312116 -384.637288 -0.000000 0.192644 0.192228 -0.105394 -36.464962 406.687114 -0.000000 0.433518 0.418329 -0.361054
2.755000 -55.282921 -374.140392 -0.000000 0.187813 0.199194 -0.105319 -33.035078 452.615294 -0.000000 0.437627 0.410626 -0.361391
2.760000 -59.479370 -356.990056 -0.000000 0.183132 0.206715 -0.105201 -29.694754 498.781920 -0.000000 0.441483 0.402586 -0.361310
2.765000 -58.886576 -334.992277 -0.000000 0.178779 0.214836 -0.105182 -26.381094 544.362239 -0.000000 0.445017 0.394319 -0.360813
2.770000 -54.443319 -309.796089 -0.000000 0.174751 0.223404 -0.105199 -22.190227 588.578264 -0.000000 0.448223 0.385270 -0.360590
